<svg width="10" height="22" viewBox="0 0 10 22" fill="none" xmlns="http://www.w3.org/2000/svg">
<path d="M6.16 11.74L7 13H5.5C5.35 15.71 5 18.41 4.5 21.08L3.5 20.92C4 18.3 4.34 15.66 4.5 13H3L3.84 11.74C1.64 10.79 0 7.36 0 5C0 3.67392 0.526784 2.40215 1.46447 1.46447C2.40215 0.526784 3.67392 0 5 0C5.65661 0 6.30679 0.129329 6.91342 0.380602C7.52004 0.631876 8.07124 1.00017 8.53553 1.46447C8.99983 1.92876 9.36812 2.47995 9.6194 3.08658C9.87067 3.69321 10 4.34339 10 5C10 7.36 8.36 10.79 6.16 11.74Z" fill="#EABDCA"/>
</svg>
